<?xml version="1.0" encoding="UTF-8" standalone="no"?>
<svg
   width="16"
   height="16"
   fill="currentColor"
   class="bi bi-send-check"
   viewBox="0 0 16 16"
   version="1.1"
   id="svg2"
   sodipodi:docname="send.svg"
   inkscape:version="1.4.1 (93de688d07, 2025-03-30)"
   xmlns:inkscape="http://www.inkscape.org/namespaces/inkscape"
   xmlns:sodipodi="http://sodipodi.sourceforge.net/DTD/sodipodi-0.dtd"
   xmlns="http://www.w3.org/2000/svg"
   xmlns:svg="http://www.w3.org/2000/svg">
  <defs
     id="defs2" />
  <sodipodi:namedview
     id="namedview2"
     pagecolor="#ffffff"
     bordercolor="#999999"
     borderopacity="1"
     inkscape:showpageshadow="2"
     inkscape:pageopacity="0"
     inkscape:pagecheckerboard="0"
     inkscape:deskcolor="#d1d1d1"
     inkscape:zoom="7.8822865"
     inkscape:cx="-4.8209362"
     inkscape:cy="24.485281"
     inkscape:window-width="1366"
     inkscape:window-height="734"
     inkscape:window-x="0"
     inkscape:window-y="0"
     inkscape:window-maximized="1"
     inkscape:current-layer="svg2" />
  <path
     d="M15.964.686a.5.5 0 0 0-.65-.65L.767 5.855a.75.75 0 0 0-.124 1.329l4.995 3.178 1.531 2.406a.5.5 0 0 0 .844-.536L6.637 10.07l7.494-7.494-1.895 4.738a.5.5 0 1 0 .928.372zm-2.54 1.183L5.93 9.363 1.591 6.602z"
     id="path1"
     style="fill:#666666" />
  <path
     d="M16 12.5a3.5 3.5 0 1 1-7 0 3.5 3.5 0 0 1 7 0m-1.993-1.679a.5.5 0 0 0-.686.172l-1.17 1.95-.547-.547a.5.5 0 0 0-.708.708l.774.773a.75.75 0 0 0 1.174-.144l1.335-2.226a.5.5 0 0 0-.172-.686"
     id="path2"
     style="fill:#666666" />
</svg>
